<svg xmlns="http://www.w3.org/2000/svg" width="112.99999592178744" height="109" style=""><rect id="backgroundrect" width="100%" height="100%" x="0" y="0" fill="none" stroke="none" style="" class="selected"/>
    
<g class="currentLayer" style=""><title>Layer 1</title><g fill="#41b883" class="icon-text-wrapper icon-svg-group iconsvg" style="" id="svg_3">
        <g class="iconsvg-imagesvg" stroke-width="0" id="svg_4">
            <g stroke-width="0" id="svg_5">
                <rect fill="#41b883" fill-opacity="0" stroke-width="3.6314740180969243" x="-498.1897369833291" y="-343.26864539855745" width="60" height="60.06366729736328" class="image-rect" transform="matrix(1.8157370090484621,0,0,1.8157370090484621,904.5815429687501,623.2855834960939) " id="svg_6"/>
                <g id="svg_1" transform="matrix(1.8157370090484621,0,0,1.8157370090484621,904.5815429687501,623.2855834960939) " stroke-width="0"><svg filter="url(#colors6552203770)" x="-498.1897369833291" y="-343.26864539855745" width="60" height="60.06366729736328" class="image-svg-svg primary" style="overflow: visible;" id="svg_15">
                    <g id="svg_16"><svg xmlns="http://www.w3.org/2000/svg" viewBox="0 0 97.89999 98" id="svg_19">
                        <path d="M72.8 35.2c7.6-7.6 7.6-19.9 0-27.5C65.2.1 52.9.1 45.3 7.7c-7.6 7.6-7.6 19.9 0 27.5l.6.6L59 49l13.1 13.2.6.6c7.6 7.6 7.6 19.9 0 27.5-7.6 7.6-19.9 7.6-27.5 0-7.6-7.6-7.6-19.9 0-27.5l27.6-27.6zM25.2 62.8c-7.6 7.6-7.6 19.9 0 27.5 7.6 7.6 19.9 7.6 27.5 0 7.6-7.6 7.6-19.9 0-27.5l-.6-.6L39 49 25.8 35.9l-.6-.6c-7.6-7.6-7.6-19.9 0-27.5C32.8.2 45.1.2 52.7 7.8c7.6 7.6 7.6 19.9 0 27.5L25.2 62.8zm10-17.6c-7.6-7.6-19.9-7.6-27.5 0-7.6 7.6-7.6 19.9 0 27.5 7.6 7.6 19.9 7.6 27.5 0l.6-.6L49 59l13.1-13.1.6-.6c7.6-7.6 19.9-7.6 27.5 0 7.6 7.6 7.6 19.9 0 27.5-7.6 7.6-19.9 7.6-27.5 0L35.2 45.2zm0-20c-7.6-7.6-19.9-7.6-27.5 0-7.6 7.6-7.6 19.9 0 27.5 7.6 7.6 19.9 7.6 27.5 0l.6-.6L49 39l13.1-13.1.6-.6c7.6-7.6 19.9-7.6 27.5 0 7.6 7.6 7.6 19.9 0 27.5-7.6 7.6-19.9 7.6-27.5 0L35.2 25.2z" fill="none" stroke="#202121" stroke-width="4" stroke-miterlimit="10" id="svg_20"/>
                    </svg></g>
                </svg></g>
                <defs transform="translate(-904.58154296875,-623.2855834960938) matrix(1.8157370090484621,0,0,1.8157370090484621,904.5815429687501,623.2855834960939) " stroke-width="0">
                    <filter id="colors6552203770">
                        <feColorMatrix type="matrix" values="0 0 0 0 0.20703125  0 0 0 0 0.28515625  0 0 0 0 0.3671875  0 0 0 1 0"/>
                    </filter>
                </defs>
            </g>
        </g>
        <g stroke-width="0" id="svg_10">
            <g class="tp-name iconsvg-namesvg" stroke-width="0" id="svg_11">
                <g stroke-width="0" id="svg_12">
                    <g stroke-width="0" id="svg_13">
                        <path d="M144.4055642776757,85.84229777330665 Q137.97785526564417,85.84229777330665 132.83931953003707,83.64525599235799 Q127.70078379442975,81.44821421140944 124.72297509959026,77.32649120086933 Q121.74516640475099,73.18661082023891 121.65437955429843,67.57598346227917 L121.65437955429843,67.57598346227917 L134.81847286989978,67.57598346227917 Q135.090833421257,71.35271644109991 137.50576364329163,73.54975822204858 Q139.92069386532603,75.74680000299725 144.13320372631847,75.74680000299725 L144.13320372631847,75.74680000299725 Q148.43650043776324,75.74680000299725 150.90590277006913,73.67685981268198 Q153.3571477322846,71.60691962236672 153.3571477322846,68.26596352571755 L153.3571477322846,68.26596352571755 Q153.3571477322846,65.54235801214486 151.68666968395996,63.79925048345831 Q150.01619163563555,62.03798558468134 147.5104745631486,61.021172859614126 Q145.00475749066163,60.02251750463756 140.62883129885495,58.78781633848462 L140.62883129885495,58.78781633848462 Q134.65505653908554,57.02655143970753 130.91463830044563,55.31975865120205 Q127.17422006180573,53.612965862696456 124.50508665850452,50.126750805323354 Q121.8177958851129,46.6586931180409 121.8177958851129,40.86649205917627 L121.8177958851129,40.86649205917627 Q121.8177958851129,35.41928103203088 124.5414013986856,31.388344871943332 Q127.26500691225829,27.339251341765248 132.18565420677965,25.196681671088072 Q137.10630150130078,23.03595463032036 143.42506629278955,23.03595463032036 L143.42506629278955,23.03595463032036 Q152.9213708501129,23.03595463032036 158.84067349961106,27.647926633303427 Q164.7781335191994,32.25989863628649 165.395484102276,40.52150202745702 L165.395484102276,40.52150202745702 L151.86824338486485,40.52150202745702 Q151.68666968395996,37.362119631712744 149.18095261147323,35.29217944139748 Q146.67523553898627,33.222239251082215 142.55351252844616,33.222239251082215 L142.55351252844616,33.222239251082215 Q138.9583532505303,33.222239251082215 136.7976262097627,35.07429100031163 Q134.65505653908554,36.90818537945063 134.65505653908554,40.43071517700457 L134.65505653908554,40.43071517700457 Q134.65505653908554,42.88196013922004 136.27106247713868,44.51612344736361 Q137.90522578528225,46.13212938541676 140.32015600731665,47.14894211048397 Q142.73508622935105,48.16575483555107 147.1291697912484,49.473085482065926 L147.1291697912484,49.473085482065926 Q153.1029445510178,51.23435038084301 156.87967752983855,52.99561527961998 Q160.65641050865952,54.738722808306534 163.36185865214156,58.26125260586048 Q166.08546416571426,61.765625033324 166.08546416571426,67.48519661182672 L166.08546416571426,67.48519661182672 Q166.08546416571426,72.40584390634808 163.54343235304646,76.61835376734052 Q161.00140054037865,80.83086362833285 156.0807532458573,83.33658070081981 Q151.16010595133594,85.84229777330665 144.4055642776757,85.84229777330665 L144.4055642776757,85.84229777330665 zM229.6907315926819,23.907508394663637 L243.56296234181218,23.907508394663637 L243.56296234181218,85.22494719023018 L231.27042279055422,85.22494719023018 L231.27042279055422,45.35136247152593 L214.8380028586655,85.22494719023018 L205.5232720022468,85.22494719023018 L189.0182225899964,45.35136247152593 L189.0182225899964,85.22494719023018 L176.72568303873823,85.22494719023018 L176.72568303873823,23.907508394663637 L190.68870063832105,23.907508394663637 L210.18971611550137,69.5006646918705 L229.6907315926819,23.907508394663637 zM308.6571341161996,23.907508394663637 L322.52936486532985,23.907508394663637 L322.52936486532985,85.22494719023018 L310.23682531407167,85.22494719023018 L310.23682531407167,45.35136247152593 L293.8044053821832,85.22494719023018 L284.4896745257645,85.22494719023018 L267.9846251135141,45.35136247152593 L267.9846251135141,85.22494719023018 L255.6920855622559,85.22494719023018 L255.6920855622559,23.907508394663637 L269.6551031618387,23.907508394663637 L289.15611863901904,69.5006646918705 L308.6571341161996,23.907508394663637 zM369.7022123604088,23.907508394663637 L383.3928694086344,23.907508394663637 L362.6753101353913,63.890037333910755 L362.6753101353913,85.22494719023018 L350.3646132140427,85.22494719023018 L350.3646132140427,63.890037333910755 L329.5562670903473,23.907508394663637 L343.4284978394776,23.907508394663637 L356.6107485251696,51.942487814371816 L369.7022123604088,23.907508394663637 zM387.35117608836003,60.712497568075946 Q387.35117608836003,53.34060531133923 390.29267004301846,47.63919110292704 Q393.2341639976769,41.91961952442432 398.28191288283165,38.85102397913249 Q403.3296617679864,35.78242843384055 409.57579707911304,35.78242843384055 L409.57579707911304,35.78242843384055 Q415.02300810625843,35.78242843384055 419.10841637661747,37.96131284469868 Q423.1938246469765,40.15835462564735 425.645069609192,43.499310722296514 L425.645069609192,43.499310722296514 L425.645069609192,36.56319534773138 L438.0283960109025,36.56319534773138 L438.0283960109025,85.22494719023018 L425.645069609192,85.22494719023018 L425.645069609192,78.10725811476016 Q423.2664541273384,81.53900106186177 419.10841637661747,83.77235758299139 Q414.9322212558061,86.02387147421155 409.4850102286607,86.02387147421155 L409.4850102286607,86.02387147421155 Q403.3296617679864,86.02387147421155 398.28191288283165,82.84633170837674 Q393.2341639976769,79.68694931263235 390.29267004301846,73.93106299394879 Q387.35117608836003,68.19333404535564 387.35117608836003,60.712497568075946 L387.35117608836003,60.712497568075946 zM425.645069609192,60.89407126898084 Q425.645069609192,56.40920085663106 423.883804710415,53.21350372070583 Q422.12253981163803,49.999649214690066 419.14473111679854,48.29285642618447 Q416.16692242195904,46.586063637678876 412.73517947485743,46.586063637678876 L412.73517947485743,46.586063637678876 Q409.3034365277558,46.586063637678876 406.4164146833689,48.23838431591298 Q403.5112354688913,49.90886236423762 401.71365582993326,53.122716870253385 Q399.9160761909752,56.318414006178614 399.9160761909752,60.712497568075946 L399.9160761909752,60.712497568075946 Q399.9160761909752,65.10658112997316 401.71365582993326,68.41122248644137 Q403.5112354688913,71.69770647281916 406.4527294235497,73.45897137159614 Q409.39422337820815,75.2202362703731 412.73517947485743,75.2202362703731 L412.73517947485743,75.2202362703731 Q416.16692242195904,75.2202362703731 419.14473111679854,73.49528611177709 Q422.12253981163803,71.78849332327161 423.883804710415,68.57463881725573 Q425.645069609192,65.3789416813305 425.645069609192,60.89407126898084 L425.645069609192,60.89407126898084 z" stroke-width="0" id="svg_14"/>
                    </g>
                </g>
            </g>
        </g>
    </g></g></svg>