<svg viewBox="904.5815 623.2856 438.0284 109.0598" width="438.0284" height="109.0598" xmlns="http://www.w3.org/2000/svg">
    <g fill="#41b883" class="icon-text-wrapper icon-svg-group iconsvg" transform="matrix(1.8157370090484621, 0, 0, 1.8157370090484621, 904.5815429687501, 623.2855834960939)" style="">
        <g class="iconsvg-imagesvg" transform="translate(0,0)">
            <g>
                <rect fill="#41b883" fill-opacity="0" stroke-width="2" x="0" y="0" width="60" height="60.06366748753678" class="image-rect"/>
                <svg filter="url(#colors6552203770)" x="0" y="0" width="60" height="60.06366748753678" class="image-svg-svg primary" style="overflow: visible;">
                    <svg xmlns="http://www.w3.org/2000/svg" viewBox="0 0 97.89999 98">
                        <path d="M72.8 35.2c7.6-7.6 7.6-19.9 0-27.5C65.2.1 52.9.1 45.3 7.7c-7.6 7.6-7.6 19.9 0 27.5l.6.6L59 49l13.1 13.2.6.6c7.6 7.6 7.6 19.9 0 27.5-7.6 7.6-19.9 7.6-27.5 0-7.6-7.6-7.6-19.9 0-27.5l27.6-27.6zM25.2 62.8c-7.6 7.6-7.6 19.9 0 27.5 7.6 7.6 19.9 7.6 27.5 0 7.6-7.6 7.6-19.9 0-27.5l-.6-.6L39 49 25.8 35.9l-.6-.6c-7.6-7.6-7.6-19.9 0-27.5C32.8.2 45.1.2 52.7 7.8c7.6 7.6 7.6 19.9 0 27.5L25.2 62.8zm10-17.6c-7.6-7.6-19.9-7.6-27.5 0-7.6 7.6-7.6 19.9 0 27.5 7.6 7.6 19.9 7.6 27.5 0l.6-.6L49 59l13.1-13.1.6-.6c7.6-7.6 19.9-7.6 27.5 0 7.6 7.6 7.6 19.9 0 27.5-7.6 7.6-19.9 7.6-27.5 0L35.2 45.2zm0-20c-7.6-7.6-19.9-7.6-27.5 0-7.6 7.6-7.6 19.9 0 27.5 7.6 7.6 19.9 7.6 27.5 0l.6-.6L49 39l13.1-13.1.6-.6c7.6-7.6 19.9-7.6 27.5 0 7.6 7.6 7.6 19.9 0 27.5-7.6 7.6-19.9 7.6-27.5 0L35.2 25.2z" fill="none" stroke="#202121" stroke-width="4" stroke-miterlimit="10"/>
                    </svg>
                </svg>
                <defs>
                    <filter id="colors6552203770">
                        <feColorMatrix type="matrix" values="0 0 0 0 0.20703125  0 0 0 0 0.28515625  0 0 0 0 0.3671875  0 0 0 1 0"/>
                    </filter>
                </defs>
            </g>
        </g>
        <g transform="translate(67,12.686834335327148)">
            <g class="tp-name iconsvg-namesvg">
                <g transform="scale(1)">
                    <g>
                        <path d="M15 0.34Q11.46 0.34 8.63-0.87 5.8-2.08 4.16-4.35 2.52-6.63 2.47-9.72L2.47-9.72 9.72-9.72Q9.87-7.64 11.2-6.43 12.53-5.22 14.85-5.22L14.85-5.22Q17.22-5.22 18.58-6.36 19.93-7.5 19.93-9.34L19.93-9.34Q19.93-10.84 19.01-11.8 18.09-12.77 16.71-13.33 15.33-13.88 12.92-14.56L12.92-14.56Q9.63-15.53 7.57-16.47 5.51-17.41 4.04-19.33 2.56-21.24 2.56-24.43L2.56-24.43Q2.56-27.43 4.06-29.65 5.56-31.88 8.27-33.06 10.98-34.25 14.46-34.25L14.46-34.25Q19.69-34.25 22.95-31.71 26.22-29.17 26.56-24.62L26.56-24.62 19.11-24.62Q19.01-26.36 17.63-27.5 16.25-28.64 13.98-28.64L13.98-28.64Q12-28.64 10.81-27.62 9.63-26.61 9.63-24.67L9.63-24.67Q9.63-23.32 10.52-22.42 11.42-21.53 12.75-20.97 14.08-20.41 16.5-19.69L16.5-19.69Q19.79-18.72 21.87-17.75 23.95-16.79 25.44-14.85 26.94-12.92 26.94-9.77L26.94-9.77Q26.94-7.06 25.54-4.74 24.14-2.42 21.43-1.04 18.72 0.34 15 0.34L15 0.34ZM61.97-33.77L69.61-33.77 69.61 0 62.84 0 62.84-21.96 53.79 0 48.66 0 39.57-21.96 39.57 0 32.8 0 32.8-33.77 40.49-33.77 51.23-8.66 61.97-33.77ZM105.46-33.77L113.1-33.77 113.1 0 106.33 0 106.33-21.96 97.28 0 92.15 0 83.06-21.96 83.06 0 76.29 0 76.29-33.77 83.98-33.77 94.72-8.66 105.46-33.77ZM139.08-33.77L146.62-33.77 135.21-11.75 135.21 0 128.43 0 128.43-11.75 116.97-33.77 124.61-33.77 131.87-18.33 139.08-33.77ZM148.8-13.5Q148.8-17.56 150.42-20.7 152.04-23.85 154.82-25.54 157.6-27.23 161.04-27.23L161.04-27.23Q164.04-27.23 166.29-26.03 168.54-24.82 169.89-22.98L169.89-22.98 169.89-26.8 176.71-26.8 176.71 0 169.89 0 169.89-3.92Q168.58-2.03 166.29-0.8 163.99 0.44 160.99 0.44L160.99 0.44Q157.6 0.44 154.82-1.31 152.04-3.05 150.42-6.22 148.8-9.38 148.8-13.5L148.8-13.5ZM169.89-13.4Q169.89-15.87 168.92-17.63 167.95-19.4 166.31-20.34 164.67-21.28 162.78-21.28L162.78-21.28Q160.89-21.28 159.3-20.37 157.7-19.45 156.71-17.68 155.72-15.92 155.72-13.5L155.72-13.5Q155.72-11.08 156.71-9.26 157.7-7.45 159.32-6.48 160.94-5.51 162.78-5.51L162.78-5.51Q164.67-5.51 166.31-6.46 167.95-7.4 168.92-9.17 169.89-10.93 169.89-13.4L169.89-13.4Z" transform="translate(-2.4700000286102295, 34.25)"/>
                    </g>
                </g>
            </g>
        </g>
    </g>
</svg>