<svg
    xmlns="http://www.w3.org/2000/svg"
    viewBox="0 0 100 100"
    id="vector">
    <g id="group">
        <path
            id="path_3"
            d="M 72.8 35.2 C 80.4 27.6 80.4 15.3 72.8 7.7 C 65.2 0.1 52.9 0.1 45.3 7.7 C 37.7 15.3 37.7 27.6 45.3 35.2 L 45.9 35.8 L 59 49 L 72.1 62.2 L 72.7 62.8 C 80.3 70.4 80.3 82.7 72.7 90.3 C 65.1 97.9 52.8 97.9 45.2 90.3 C 37.6 82.7 37.6 70.4 45.2 62.8 L 72.8 35.2 Z M 25.2 62.8 C 17.6 70.4 17.6 82.7 25.2 90.3 C 32.8 97.9 45.1 97.9 52.7 90.3 C 60.3 82.7 60.3 70.4 52.7 62.8 L 52.1 62.2 L 39 49 L 25.8 35.9 L 25.2 35.3 C 17.6 27.7 17.6 15.4 25.2 7.8 C 32.8 0.2 45.1 0.2 52.7 7.8 C 60.3 15.4 60.3 27.7 52.7 35.3 L 25.2 62.8 Z M 35.2 45.2 C 27.6 37.6 15.3 37.6 7.7 45.2 C 0.1 52.8 0.1 65.1 7.7 72.7 C 15.3 80.3 27.6 80.3 35.2 72.7 L 35.8 72.1 L 49 59 L 62.1 45.9 L 62.7 45.3 C 70.3 37.7 82.6 37.7 90.2 45.3 C 97.8 52.9 97.8 65.2 90.2 72.8 C 82.6 80.4 70.3 80.4 62.7 72.8 L 35.2 45.2 Z M 35.2 25.2 C 27.6 17.6 15.3 17.6 7.7 25.2 C 0.1 32.8 0.1 45.1 7.7 52.7 C 15.3 60.3 27.6 60.3 35.2 52.7 L 35.8 52.1 L 49 39 L 62.1 25.9 L 62.7 25.3 C 70.3 17.7 82.6 17.7 90.2 25.3 C 97.8 32.9 97.8 45.2 90.2 52.8 C 82.6 60.4 70.3 60.4 62.7 52.8 L 35.2 25.2 Z"
            fill="none"
            stroke="#202121"
            stroke-width="4"
            stroke-miterlimit="10"/>
    </g>
</svg>
